<?xml version="1.0" standalone="no"?><!DOCTYPE svg PUBLIC "-//W3C//DTD SVG 1.1//EN" "http://www.w3.org/Graphics/SVG/1.1/DTD/svg11.dtd">
<svg width="100%" height="100%" viewBox="0 0 400 400" version="1" xmlns="http://www.w3.org/2000/svg" xmlns:xlink="http://www.w3.org/1999/xlink">
        <rect x="0" y="0" width="40" height="40" style="fill:rgb(172,173,44);"/>
        <rect x="0" y="40" width="40" height="40" style="fill:rgb(75,56,9);"/>
        <rect x="0" y="80" width="40" height="40" style="fill:rgb(211,208,41);"/>
        <rect x="0" y="120" width="40" height="40" style="fill:rgb(85,88,12);"/>
        <rect x="0" y="160" width="40" height="40" style="fill:rgb(148,170,42);"/>
        <rect x="0" y="200" width="40" height="40" style="fill:rgb(211,208,41);"/>
        <rect x="0" y="240" width="40" height="40" style="fill:rgb(177,171,33);"/>
        <rect x="0" y="280" width="40" height="40" style="fill:rgb(146,118,20);"/>
        <rect x="0" y="320" width="40" height="40" style="fill:rgb(85,88,12);"/>
        <rect x="0" y="360" width="40" height="40" style="fill:rgb(177,171,33);"/>
        <rect x="40" y="0" width="40" height="40" style="fill:rgb(82,107,46);"/>
        <rect x="40" y="40" width="40" height="40" style="fill:rgb(236,212,48);"/>
        <rect x="40" y="80" width="40" height="40" style="fill:rgb(148,145,28);"/>
        <rect x="40" y="120" width="40" height="40" style="fill:rgb(192,156,29);"/>
        <rect x="40" y="160" width="40" height="40" style="fill:rgb(179,208,54);"/>
        <rect x="40" y="200" width="40" height="40" style="fill:rgb(111,137,76);"/>
        <rect x="40" y="240" width="40" height="40" style="fill:rgb(148,170,42);"/>
        <rect x="40" y="280" width="40" height="40" style="fill:rgb(135,121,39);"/>
        <rect x="40" y="320" width="40" height="40" style="fill:rgb(222,214,71);"/>
        <rect x="40" y="360" width="40" height="40" style="fill:rgb(85,88,12);"/>
        <rect x="80" y="0" width="40" height="40" style="fill:rgb(148,170,42);"/>
        <rect x="80" y="40" width="40" height="40" style="fill:rgb(82,107,46);"/>
        <rect x="80" y="80" width="40" height="40" style="fill:rgb(172,173,44);"/>
        <rect x="80" y="120" width="40" height="40" style="fill:rgb(146,118,20);"/>
        <rect x="80" y="160" width="40" height="40" style="fill:rgb(111,137,76);"/>
        <rect x="80" y="200" width="40" height="40" style="fill:rgb(179,208,54);"/>
        <rect x="80" y="240" width="40" height="40" style="fill:rgb(109,105,17);"/>
        <rect x="80" y="280" width="40" height="40" style="fill:rgb(117,139,33);"/>
        <rect x="80" y="320" width="40" height="40" style="fill:rgb(179,208,54);"/>
        <rect x="80" y="360" width="40" height="40" style="fill:rgb(109,105,17);"/>
        <rect x="120" y="0" width="40" height="40" style="fill:rgb(179,208,54);"/>
        <rect x="120" y="40" width="40" height="40" style="fill:rgb(177,171,33);"/>
        <rect x="120" y="80" width="40" height="40" style="fill:rgb(75,56,9);"/>
        <rect x="120" y="120" width="40" height="40" style="fill:rgb(179,208,54);"/>
        <rect x="120" y="160" width="40" height="40" style="fill:rgb(85,88,12);"/>
        <rect x="120" y="200" width="40" height="40" style="fill:rgb(148,145,28);"/>
        <rect x="120" y="240" width="40" height="40" style="fill:rgb(211,208,41);"/>
        <rect x="120" y="280" width="40" height="40" style="fill:rgb(148,170,42);"/>
        <rect x="120" y="320" width="40" height="40" style="fill:rgb(135,121,39);"/>
        <rect x="120" y="360" width="40" height="40" style="fill:rgb(84,107,20);"/>
        <rect x="160" y="0" width="40" height="40" style="fill:rgb(85,88,12);"/>
        <rect x="160" y="40" width="40" height="40" style="fill:rgb(148,170,42);"/>
        <rect x="160" y="80" width="40" height="40" style="fill:rgb(222,214,71);"/>
        <rect x="160" y="120" width="40" height="40" style="fill:rgb(192,156,29);"/>
        <rect x="160" y="160" width="40" height="40" style="fill:rgb(172,173,44);"/>
        <rect x="160" y="200" width="40" height="40" style="fill:rgb(234,224,77);"/>
        <rect x="160" y="240" width="40" height="40" style="fill:rgb(148,170,42);"/>
        <rect x="160" y="280" width="40" height="40" style="fill:rgb(111,137,76);"/>
        <rect x="160" y="320" width="40" height="40" style="fill:rgb(148,170,42);"/>
        <rect x="160" y="360" width="40" height="40" style="fill:rgb(135,121,39);"/>
        <rect x="200" y="0" width="40" height="40" style="fill:rgb(148,170,42);"/>
        <rect x="200" y="40" width="40" height="40" style="fill:rgb(179,208,54);"/>
        <rect x="200" y="80" width="40" height="40" style="fill:rgb(148,170,42);"/>
        <rect x="200" y="120" width="40" height="40" style="fill:rgb(153,169,85);"/>
        <rect x="200" y="160" width="40" height="40" style="fill:rgb(111,137,76);"/>
        <rect x="200" y="200" width="40" height="40" style="fill:rgb(142,144,39);"/>
        <rect x="200" y="240" width="40" height="40" style="fill:rgb(111,137,76);"/>
        <rect x="200" y="280" width="40" height="40" style="fill:rgb(84,107,20);"/>
        <rect x="200" y="320" width="40" height="40" style="fill:rgb(153,169,85);"/>
        <rect x="200" y="360" width="40" height="40" style="fill:rgb(232,202,38);"/>
        <rect x="240" y="0" width="40" height="40" style="fill:rgb(111,137,76);"/>
        <rect x="240" y="40" width="40" height="40" style="fill:rgb(148,170,42);"/>
        <rect x="240" y="80" width="40" height="40" style="fill:rgb(211,208,41);"/>
        <rect x="240" y="120" width="40" height="40" style="fill:rgb(179,208,54);"/>
        <rect x="240" y="160" width="40" height="40" style="fill:rgb(109,115,41);"/>
        <rect x="240" y="200" width="40" height="40" style="fill:rgb(148,170,42);"/>
        <rect x="240" y="240" width="40" height="40" style="fill:rgb(153,169,85);"/>
        <rect x="240" y="280" width="40" height="40" style="fill:rgb(222,214,71);"/>
        <rect x="240" y="320" width="40" height="40" style="fill:rgb(172,173,44);"/>
        <rect x="240" y="360" width="40" height="40" style="fill:rgb(179,208,54);"/>
        <rect x="280" y="0" width="40" height="40" style="fill:rgb(117,139,33);"/>
        <rect x="280" y="40" width="40" height="40" style="fill:rgb(179,208,54);"/>
        <rect x="280" y="80" width="40" height="40" style="fill:rgb(142,144,39);"/>
        <rect x="280" y="120" width="40" height="40" style="fill:rgb(177,171,33);"/>
        <rect x="280" y="160" width="40" height="40" style="fill:rgb(146,118,20);"/>
        <rect x="280" y="200" width="40" height="40" style="fill:rgb(111,137,76);"/>
        <rect x="280" y="240" width="40" height="40" style="fill:rgb(75,56,9);"/>
        <rect x="280" y="280" width="40" height="40" style="fill:rgb(135,121,39);"/>
        <rect x="280" y="320" width="40" height="40" style="fill:rgb(152,175,138);"/>
        <rect x="280" y="360" width="40" height="40" style="fill:rgb(236,212,48);"/>
        <rect x="320" y="0" width="40" height="40" style="fill:rgb(177,171,33);"/>
        <rect x="320" y="40" width="40" height="40" style="fill:rgb(85,88,12);"/>
        <rect x="320" y="80" width="40" height="40" style="fill:rgb(84,107,20);"/>
        <rect x="320" y="120" width="40" height="40" style="fill:rgb(148,170,42);"/>
        <rect x="320" y="160" width="40" height="40" style="fill:rgb(109,105,17);"/>
        <rect x="320" y="200" width="40" height="40" style="fill:rgb(222,214,71);"/>
        <rect x="320" y="240" width="40" height="40" style="fill:rgb(177,171,33);"/>
        <rect x="320" y="280" width="40" height="40" style="fill:rgb(142,144,39);"/>
        <rect x="320" y="320" width="40" height="40" style="fill:rgb(135,121,39);"/>
        <rect x="320" y="360" width="40" height="40" style="fill:rgb(153,169,85);"/>
        <rect x="360" y="0" width="40" height="40" style="fill:rgb(111,137,76);"/>
        <rect x="360" y="40" width="40" height="40" style="fill:rgb(148,170,42);"/>
        <rect x="360" y="80" width="40" height="40" style="fill:rgb(222,214,71);"/>
        <rect x="360" y="120" width="40" height="40" style="fill:rgb(111,137,76);"/>
        <rect x="360" y="160" width="40" height="40" style="fill:rgb(172,173,44);"/>
        <rect x="360" y="200" width="40" height="40" style="fill:rgb(146,118,20);"/>
        <rect x="360" y="240" width="40" height="40" style="fill:rgb(192,156,29);"/>
        <rect x="360" y="280" width="40" height="40" style="fill:rgb(148,145,28);"/>
        <rect x="360" y="320" width="40" height="40" style="fill:rgb(172,173,44);"/>
        <rect x="360" y="360" width="40" height="40" style="fill:rgb(111,137,76);"/>
</svg>
