<?xml version="1.0" standalone="no"?><!DOCTYPE svg PUBLIC "-//W3C//DTD SVG 1.1//EN" "http://www.w3.org/Graphics/SVG/1.1/DTD/svg11.dtd"><svg width="100%" height="100%" viewBox="0 0 400 400" version="1" xmlns="http://www.w3.org/2000/svg" xmlns:xlink="http://www.w3.org/1999/xlink"><g id="Layer1"><rect x="0" y="0" width="40" height="40" style="fill:#9cb4b2;"/><rect x="0" y="40" width="40" height="40" style="fill:#d1c4b6;"/><rect x="0" y="80" width="40" height="40" style="fill:#cbd5d6;"/><rect x="0" y="120" width="40" height="40" style="fill:#b8bcc4;"/><rect x="0" y="160" width="40" height="40" style="fill:#98a8a5;"/><rect x="0" y="200" width="40" height="40" style="fill:#c6ccd4;"/><rect x="0" y="240" width="40" height="40" style="fill:#cea3dd;"/><rect x="0" y="280" width="40" height="40" style="fill:#cbd5d6;"/><rect x="0" y="320" width="40" height="40" style="fill:#d8d5c9;"/><rect x="0" y="360" width="40" height="40" style="fill:#ece2d5;"/><rect x="40" y="0" width="40" height="40" style="fill:#d8d5c9;"/><rect x="40" y="40" width="40" height="40" style="fill:#d6dbd7;"/><rect x="40" y="80" width="40" height="40" style="fill:#cdcccc;"/><rect x="40" y="120" width="40" height="40" style="fill:#cbd5d6;"/><rect x="40" y="160" width="40" height="40" style="fill:#d1c4b6;"/><rect x="40" y="200" width="40" height="40" style="fill:#cdcccc;"/><rect x="40" y="240" width="40" height="40" style="fill:#a2857d;"/><rect x="40" y="280" width="40" height="40" style="fill:#b8bcc4;"/><rect x="40" y="320" width="40" height="40" style="fill:#dbe3e4;"/><rect x="40" y="360" width="40" height="40" style="fill:#cbd5d6;"/><rect x="80" y="0" width="40" height="40" style="fill:#d6dbd7;"/><rect x="80" y="40" width="40" height="40" style="fill:#d8d5c9;"/><rect x="80" y="80" width="40" height="40" style="fill:#8a9594;"/><rect x="80" y="120" width="40" height="40" style="fill:#d1c4b6;"/><rect x="80" y="160" width="40" height="40" style="fill:#cbd5d6;"/><rect x="80" y="200" width="40" height="40" style="fill:#e9ebe6;"/><rect x="80" y="240" width="40" height="40" style="fill:#d6dbd7;"/><rect x="80" y="280" width="40" height="40" style="fill:#d8d5c9;"/><rect x="80" y="320" width="40" height="40" style="fill:#d6dbd7;"/><rect x="80" y="360" width="40" height="40" style="fill:#98a8a5;"/><rect x="120" y="0" width="40" height="40" style="fill:#dbe3e4;"/><rect x="120" y="40" width="40" height="40" style="fill:#d1c4b6;"/><rect x="120" y="80" width="40" height="40" style="fill:#cbd5d6;"/><rect x="120" y="120" width="40" height="40" style="fill:#b8bcc4;"/><rect x="120" y="160" width="40" height="40" style="fill:#cdcccc;"/><rect x="120" y="200" width="40" height="40" style="fill:#dbe4da;"/><rect x="120" y="240" width="40" height="40" style="fill:#e9ebe6;"/><rect x="120" y="280" width="40" height="40" style="fill:#98a8a5;"/><rect x="120" y="320" width="40" height="40" style="fill:#c6ccd4;"/><rect x="120" y="360" width="40" height="40" style="fill:#b8bcc4;"/><rect x="160" y="0" width="40" height="40" style="fill:#c6ccd4;"/><rect x="160" y="40" width="40" height="40" style="fill:#dbe3e4;"/><rect x="160" y="80" width="40" height="40" style="fill:#b284dd;"/><rect x="160" y="120" width="40" height="40" style="fill:#cdcccc;"/><rect x="160" y="160" width="40" height="40" style="fill:#c6cac6;"/><rect x="160" y="200" width="40" height="40" style="fill:#fefffe;"/><rect x="160" y="240" width="40" height="40" style="fill:#b8bcc4;"/><rect x="160" y="280" width="40" height="40" style="fill:#d8d5c9;"/><rect x="160" y="320" width="40" height="40" style="fill:#e9ebe6;"/><rect x="160" y="360" width="40" height="40" style="fill:#d8d5c9;"/><rect x="200" y="0" width="40" height="40" style="fill:#8a9594;"/><rect x="200" y="40" width="40" height="40" style="fill:#e9ebe6;"/><rect x="200" y="80" width="40" height="40" style="fill:#98a8a5;"/><rect x="200" y="120" width="40" height="40" style="fill:#cbd5d6;"/><rect x="200" y="160" width="40" height="40" style="fill:#8a9594;"/><rect x="200" y="200" width="40" height="40" style="fill:#9cb4b2;"/><rect x="200" y="240" width="40" height="40" style="fill:#cbd5d6;"/><rect x="200" y="280" width="40" height="40" style="fill:#b8bcc4;"/><rect x="200" y="320" width="40" height="40" style="fill:#cbd5d6;"/><rect x="200" y="360" width="40" height="40" style="fill:#8a9594;"/><rect x="240" y="0" width="40" height="40" style="fill:#dbe3e4;"/><rect x="240" y="40" width="40" height="40" style="fill:#c6ccd4;"/><rect x="240" y="80" width="40" height="40" style="fill:#dbe3e4;"/><rect x="240" y="120" width="40" height="40" style="fill:#bcc7c6;"/><rect x="240" y="160" width="40" height="40" style="fill:#d6dbd7;"/><rect x="240" y="200" width="40" height="40" style="fill:#dbe3e4;"/><rect x="240" y="240" width="40" height="40" style="fill:#e9ebe6;"/><rect x="240" y="280" width="40" height="40" style="fill:#d8d5c9;"/><rect x="240" y="320" width="40" height="40" style="fill:#dbe3e4;"/><rect x="240" y="360" width="40" height="40" style="fill:#d6dbd7;"/><rect x="280" y="0" width="40" height="40" style="fill:#c6cac6;"/><rect x="280" y="40" width="40" height="40" style="fill:#d8d5c9;"/><rect x="280" y="80" width="40" height="40" style="fill:#c6cac6;"/><rect x="280" y="120" width="40" height="40" style="fill:#d1c4b6;"/><rect x="280" y="160" width="40" height="40" style="fill:#c6ccd4;"/><rect x="280" y="200" width="40" height="40" style="fill:#d8d5c9;"/><rect x="280" y="240" width="40" height="40" style="fill:#fefffe;"/><rect x="280" y="280" width="40" height="40" style="fill:#e9ebe6;"/><rect x="280" y="320" width="40" height="40" style="fill:#8a9594;"/><rect x="280" y="360" width="40" height="40" style="fill:#dbe3e4;"/><rect x="320" y="0" width="40" height="40" style="fill:#cbd5d6;"/><rect x="320" y="40" width="40" height="40" style="fill:#d6dbd7;"/><rect x="320" y="80" width="40" height="40" style="fill:#cbd5d6;"/><rect x="320" y="120" width="40" height="40" style="fill:#d6dbd7;"/><rect x="320" y="160" width="40" height="40" style="fill:#bcc7c6;"/><rect x="320" y="200" width="40" height="40" style="fill:#d2b2c9;"/><rect x="320" y="240" width="40" height="40" style="fill:#dbe3e4;"/><rect x="320" y="280" width="40" height="40" style="fill:#8a9594;"/><rect x="320" y="320" width="40" height="40" style="fill:#cbd5d6;"/><rect x="320" y="360" width="40" height="40" style="fill:#ece2d5;"/><rect x="360" y="0" width="40" height="40" style="fill:#d6dbd7;"/><rect x="360" y="40" width="40" height="40" style="fill:#dbe3e4;"/><rect x="360" y="80" width="40" height="40" style="fill:#c6cac6;"/><rect x="360" y="120" width="40" height="40" style="fill:#bcc7c6;"/><rect x="360" y="160" width="40" height="40" style="fill:#535c71;"/><rect x="360" y="200" width="40" height="40" style="fill:#9cb4b2;"/><rect x="360" y="240" width="40" height="40" style="fill:#b8bcc4;"/><rect x="360" y="280" width="40" height="40" style="fill:#e9ebe6;"/><rect x="360" y="320" width="40" height="40" style="fill:#d8d5c9;"/><rect x="360" y="360" width="40" height="40" style="fill:#b8bcc4;"/></g></svg>