<?xml version="1.0" encoding="utf-8"?>
<!DOCTYPE svg PUBLIC "-//W3C//DTD SVG 1.1//EN" "http://www.w3.org/Graphics/SVG/1.1/DTD/svg11.dtd" [
]>
<svg class="bg" version="1.1" xmlns="http://www.w3.org/2000/svg" xmlns:xlink="http://www.w3.org/1999/xlink" xml:space="preserve">
    <style type="text/css">
        <![CDATA[ 
            svg{
                background-size: cover;
                background-repeat: no-repeat;
                background-position: bottom right;
            }

            @media screen and (min-width: 500px) {
                svg {
                    background-image: url('http://dl.dropboxusercontent.com/sh/muj77ichmj3uurb/AAACwDfUAv4aCJkMR5k43vEza/apocalypse.jpg');
                }
            }

            @media screen and (max-width: 500px) {
                svg {
                    background-image: url('http://dl.dropboxusercontent.com/sh/muj77ichmj3uurb/AAC_ZUZINGYyPR-UDYYkF5RQa/beach.jpg');
                }
            }

            @-webkit-keyframes arm1 {
                from{
                    -webkit-transform: translate(20px, 55px) rotate(-10deg);
                }

                to{
                    -webkit-transform: translate(-50px, -30px) rotate(10deg);
                }
            }

            @-webkit-keyframes arm2 {
                to{
                    -webkit-transform: translate(18px, 45px) rotate(-10deg);
                }

                from{
                    -webkit-transform: translate(-38px, -45px) rotate(10deg);
                }
            }

            @-webkit-keyframes kopf {

                from{
                    -webkit-transform: translate(45px, 60px) rotate(8deg);
                }

                to{
                    -webkit-transform: translate(84px, 91px) rotate(-2deg);
                }
            }

            @-webkit-keyframes dust1 {
                from{
                    -webkit-transform: translateX(0);
                }

                to{
                    -webkit-transform: translateX(1222px);
                }
            }

            @-webkit-keyframes torso {

                from{
                    -webkit-transform: translate(95px, -64px);
                }

                25%{
                    -webkit-transform: translate(96px, -67px);
                }
                50%{
                    -webkit-transform: translate(94px, -69px);
                }
                75%{
                    -webkit-transform: translate(92px, -66px);
                }
                to{
                    -webkit-transform: translate(95px, -64px);
                }
            }

            @-moz-keyframes arm1 {
                from{
                    -moz-transform: translate(20px, 55px) rotate(-10deg);
                }

                to{
                    -moz-transform: translate(-50px, -30px) rotate(10deg);
                }
            }

            @-moz-keyframes arm2 {
                to{
                    -moz-transform: translate(18px, 45px) rotate(-10deg);
                }

                from{
                    -moz-transform: translate(-38px, -45px) rotate(10deg);
                }
            }

            @-moz-keyframes kopf {

                from{
                    -moz-transform: translate(45px, 60px) rotate(8deg);
                }

                to{
                    -moz-transform: translate(84px, 91px) rotate(-2deg);
                }
            }

            @-moz-keyframes dust1 {
                from{
                    -moz-transform: translateX(0);
                }

                to{
                    -moz-transform: translateX(1222px);
                }
            }

            @-moz-keyframes torso {

                from{
                    -moz-transform: translate(95px, -64px);
                }

                25%{
                    -moz-transform: translate(96px, -67px);
                }
                50%{
                    -moz-transform: translate(94px, -69px);
                }
                75%{
                    -moz-transform: translate(92px, -66px);
                }
                to{
                    -moz-transform: translate(95px, -64px);
                }
            }

            .arm1{
                -webkit-animation: arm1 linear 1.5s infinite alternate-reverse;
                -moz-animation: arm1 linear 1.5s infinite alternate-reverse;
            }

            .torso{
                -webkit-animation: torso linear 3s infinite;
                -moz-animation: torso linear 3s infinite;
            }

            .arm2{
                -webkit-animation: arm2 linear 1.5s infinite alternate-reverse;
                -moz-animation: arm2 linear 1.5s infinite alternate-reverse;
            }

            .kopf{
                -webkit-animation: kopf linear 1.8s infinite alternate-reverse;
                -moz-animation: kopf linear 1.8s infinite alternate-reverse;
            }

            .rev{
                -webkit-transform: scaleX(0.5);
                -moz-transform: scaleX(0.5);
            }

            .dust1{
                -webkit-animation: dust1 linear 15s infinite;
                -moz-animation: dust1 linear 15s infinite;
            }

            .dust2{
                -webkit-animation: dust1 linear 40s infinite;
                -moz-animation: dust1 linear 40s infinite;
            }
        ]]>
    </style>

    <defs>
        <radialGradient id="SVGID_1_" cx="1453.1895" cy="1228.6318" r="59.2425" gradientTransform="matrix(0.9854 0.1705 -0.1705 0.9854 -1258.541 -1453.9453)" gradientUnits="userSpaceOnUse">
            <stop  offset="0" style="stop-color:#D9E6C3"/>
            <stop  offset="1" style="stop-color:#B2C295"/>
        </radialGradient>

        <radialGradient id="SVGID_2_" cx="1453.1895" cy="1228.6318" r="59.2425" gradientTransform="matrix(0.9854 0.1705 -0.1705 0.9854 -1258.541 -1453.9453)" gradientUnits="userSpaceOnUse">
            <stop  offset="0" style="stop-color:#D9E6C3"/>
            <stop  offset="1" style="stop-color:#B2C295"/>
        </radialGradient>

        <radialGradient id="SVGID_3_" cx="-4.882812e-04" cy="-3.5068" r="52.6639" gradientUnits="userSpaceOnUse">
            <stop  offset="0" style="stop-color:#D9E6C3"/>
            <stop  offset="1" style="stop-color:#B2C295"/>
        </radialGradient>

        <radialGradient id="SVGID_4_" cx="-29.8398" cy="14.6641" r="21.2656" gradientUnits="userSpaceOnUse">
            <stop  offset="0" style="stop-color:#FFFFFF"/>
            <stop  offset="0.6189" style="stop-color:#FFDD9F"/>
            <stop  offset="0.7727" style="stop-color:#DBAC78"/>
            <stop  offset="0.9301" style="stop-color:#FFDD9F"/>
            <stop  offset="1" style="stop-color:#FFFFFF"/>
        </radialGradient>

        <radialGradient id="SVGID_5_" cx="23.7153" cy="18.6826" r="50.8354" gradientUnits="userSpaceOnUse">
            <stop  offset="0" style="stop-color:#FFFFFF"/>
            <stop  offset="1" style="stop-color:#B5AD72"/>
        </radialGradient>

        <symbol  id="armHinten" viewBox="-113.05 -31.5 226.11 63">
            <g>
                <g>
                    <path fill="#231F20" stroke="#231F20" stroke-width="5" d="M-82.94-9.05c4.88-14.7,16.33-20.07,18.88-19.95
                    c2.55,0.12,9.74,7.27,10.42,10.71c3.04,1.85,7.04,1.97,10.21,0.99c3.17-0.98,29.04-10.18,32.7-9.43
                    C-7.06-25.98,5.19-14.6,8.09-15.88c2.91-1.28,5.24-2.59,7.52-2.77s2.16,2.38,4.94,3.65c2.78,1.27,13.07,0.06,16.5-0.35
                    S34.92-0.38,34.92-0.38C32.09-0.52,21.8-5.27,18.68-5.42C15.56-5.57-4.66,1.14-7.5,1c-2.84-0.14-28.16-7.47-33.52-8.3
                    c-5.36-0.82-15.6,1.11-15.6,1.11c-2.55,5.85-5.53,14.52-6.19,16.48c-0.52,1.53-18.57,13.93-20.31,16.19
                    c-3.54,4.6-10.52,1.49-10.52,1.49s-11.82-8.36-13.53-12.6c-0.73-1.82-2.06-5.27-0.38-7.72c0,0-2.41-2.58-2.93-7.15
                    c-0.46-4.01,1.82-5.33,4.47-4.32c4.72,1.79,4.34,6.56,6.22,8.92c2.16-1.52,3.16-2.72,7.2-3.95l1.49-0.11
                    c-2.05-0.4-1.43-5.83-1.43-5.83c-0.66-4.98,0.52-7.82,4.31-7.8S-86.04-9.77-82.94-9.05z"/>
                </g>

                <path fill="#231F20" stroke="#231F20" stroke-linecap="round" stroke-linejoin="round" d="M-68.84,11.43
                c-2.97,2.7-5.71,2.04-8.76,2.93c-3.87,1.13-9.44,6.23-10.39,7.52c-1.21,1.63-3.1,2.2-4.29,1.74c-1.85-0.71-16.12-11.34-11.8-11.32
                "/>
            </g>
            <g>
                <path fill="#231F20" stroke="#231F20" stroke-width="4" d="M109.71,2.68c-3.81,5.15-8.12,7.9-10.64,7.92
                c-4.26,0.05-6.41-5.49-9.85-6.66c-3.45-1.17-6.89,2.67-8.9,2.83c-2.01,0.15-2.82-3.89-7.25-5.35C68.63-0.04,58.92,4.25,56.4,4.63
                c-2.52,0.38-2.27,0.39-6.18-1.55c-9.56,6.3-14.69,3.55-21.56,0.72c0,0,9.67-13.8,6.11-28.24c6.75,0.07,8.15,2.39,11.8,4.57
                c1.74-4.92,3.14-8.11,4.64-8.04c1.5,0.07,12.57,9.36,17.62,8.35s5.05-1.01,5.05-1.01s1.04,1.2,2.77,2.71
                c5.77-0.22,17.35-4.75,20.09-4.37c2.73,0.38,1.05,8.2,6.67,11.22c0,0,4.73,0.32,5.83,2.29C111.18-5.18,109.71,2.68,109.71,2.68z"
                />

                <path fill="#231F20" stroke="#231F20" stroke-linecap="round" stroke-linejoin="round" d="M104.92-10.32
                c-5.61-3.02-5.46-11.52-8.19-11.9c-2.74-0.38-14.71,4.05-20.48,4.28"/>

                <path fill="#231F20" d="M112.55,2.64c-3.81,5.15-8.12,7.89-10.64,7.92c-4.26,0.05-9.25-5.45-12.7-6.62
                c-3.45-1.17-6.89,2.67-8.9,2.83c-2.01,0.15-2.82-3.89-7.25-5.35C68.63-0.04,58.92,4.25,56.4,4.63c-2.52,0.38-2.27,0.39-6.18-1.55
                c-9.56,6.3-14.69,3.55-21.56,0.72c0,0,9.67-13.8,6.11-28.24c6.75,0.07,8.15,2.39,11.8,4.57c1.74-4.92,3.14-8.11,4.64-8.04
                c1.5,0.07,12.57,9.36,17.62,8.35s5.05-1.01,5.05-1.01s1.04,1.2,2.77,2.71c5.77-0.22,17.35-4.75,20.09-4.37
                c2.73,0.38,2.58,8.88,8.19,11.9c0,0,5.34-2.06,7.15,1.56C113.87-5.14,112.55,2.64,112.55,2.64z"/>
                <g>
                    <g>
                        <path fill="#231F20" d="M52.29-22.88c-2.49-0.24-5.09,1.22-5.09,1.22c1.45-3.89,2.69-6.31,3.99-6.25
                            c1.1,0.05,7.38,5.09,12.64,7.35C63.83-20.56,54.78-22.63,52.29-22.88z"/>
                        <path fill="#231F20" d="M46.71-20.29l1.48,8.43l-12.64-6.3c-0.03-2.05-0.26-4.16-0.78-6.28c6.75,0.07,8.15,2.39,11.8,4.57
                            C46.61-20.01,46.65-20.15,46.71-20.29z"/>
                        <path fill="#231F20" d="M105.92-6.95c0,0-7-8.24-10.5-9.81c-3.51-1.57-10.84-2.62-10.84-2.62c5.12-1.36,10.42-3.09,12.15-2.85
                            c2.73,0.38,2.58,8.88,8.19,11.9c0,0,4.86-2.14,6.23,0.38C106.63-9.61,105.92-6.95,105.92-6.95z"/>
                        <path fill="#231F20" d="M92.99-12.14c-5.92,0.98-14.99-4.5-14.99-4.5l-5.59,2.12l-3.59-5.04c5.05-1.01,5.05-1.01,5.05-1.01 s1.04,1.2,2.77,2.71c2.05-0.08,4.84-0.71,7.7-1.46C84.34-19.32,81.52-14.37,92.99-12.14z"/>
                    </g>
                    <path fill="#231F20" stroke="#231F20" stroke-linecap="round" stroke-linejoin="round" d="M92.99-12.14
                        c-9.63,2.54-19.12-8.42-19.12-8.42s0,0-5.05,1.01s-16.12-8.28-17.62-8.35c-1.5-0.07-2.9,3.12-4.64,8.04
                        c-3.65-2.18-5.04-4.5-11.8-4.57C38.32-10,28.65,3.8,28.65,3.8c6.87,2.83,12,5.58,21.56-0.72c3.91,1.94,3.66,1.93,6.18,1.55
                        c2.52-0.38,12.24-4.67,16.67-3.21c4.44,1.46,5.24,5.51,7.25,5.35c2.01-0.15,5.45-3.99,8.9-2.83c3.45,1.17,8.44,6.66,12.7,6.62
                        c2.52-0.03,6.83-2.77,10.64-7.92"/>
                </g>
            </g>
        </symbol>

        <symbol  id="armVorne" viewBox="-117.01 -33 234.01 66">
            <g>
                <g>
                    <path fill="url(#SVGID_1_)" stroke="#231F20" stroke-width="5" d="M-91.07-15.71c4.18-0.11,11.18,1.61,14.16,2.71
                        c6.65-13.99,18.68-17.9,21.2-17.47c2.52,0.44,8.77,8.41,9.02,11.91c2.79,2.21,6.74,2.83,10.02,2.24
                        c3.27-0.59,30.07-6.52,33.61-5.33c3.54,1.19,14.29,14,17.33,13.09c3.04-0.91,5.52-1.93,7.81-1.82s1.85,2.62,4.46,4.23
                        c2.6,1.6,12.97,1.67,16.42,1.69S39,10.13,39,10.13c-2.8-0.48-12.42-6.47-15.5-7.01C20.42,2.59-0.48,6.76-3.27,6.27
                        C-6.07,5.79-30.3-4.61-35.52-6.09c-5.22-1.48-15.62-0.82-15.62-0.82c-3.25,5.49-7.27,13.73-8.17,15.59
                        c-0.7,1.45-2.15,3.12-3.86,3.86c-1.45,2.91-1.07,5.07-1.46,6.7c-0.72,3-2.53,2.84-2.87,6.24c-0.13,1.32,0.23,1.94,0.58,3.45
                        c-1.22,2.35-5.23,2-8.05-0.62c-3.11-2.88-3.14-6.04-2.64-8.93c-0.95,0.61-1.85,0.83-3.86,2.86c-4.08,4.13-6.96,2.09-6.96,2.09
                        s-7.63-6.4-11.85-9.83l-0.14-0.25c-1.14-0.34-2.23-0.61-3.19-0.78c-4.48-0.78-10.64-0.47-10.64-0.47s-0.93-2.17,0.68-4.78
                        c1.6-2.61,8.77-3.2,13.06-2.64l0.03-0.04c-3.71-3.09-9.05-7.41-11.75-9.19c-3.45-2.28,2.13-3.77,4.97-3.75
                        c3.74,0.03,10.29,3.8,11.86,6.38c2.33-1.24,3.47-2.31,7.63-3.03l0.03-0.11c-1.98-0.65-3.73-1.25-4.71-1.71
                        c-3.73-1.77-6.54-10.1-6.54-10.1c-2.31-4.94,1.76-6.12,4.66-7.92c2.91-1.8,10.32-3.47,8.89,1.47s-3.66,6.64-3.66,6.64"/>
                </g>
                <g>
                    <path fill="url(#SVGID_2_)" d="M-91.07-15.71c4.18-0.11,11.18,1.61,14.16,2.71c6.65-13.99,18.68-17.9,21.2-17.47
                        c2.52,0.44,8.77,8.41,9.02,11.91c2.79,2.21,6.74,2.83,10.02,2.24c3.27-0.59,30.07-6.52,33.61-5.33
                        c3.54,1.19,14.29,14,17.33,13.09c3.04-0.91,5.52-1.93,7.81-1.82s1.85,2.62,4.46,4.23c2.6,1.6,12.97,1.67,16.42,1.69
                        S39,10.13,39,10.13c-2.8-0.48-12.42-6.47-15.5-7.01C20.42,2.59-0.48,6.76-3.27,6.27C-6.07,5.79-30.3-4.61-35.52-6.09
                        c-5.22-1.48-15.62-0.82-15.62-0.82c-3.25,5.49-7.27,13.73-8.17,15.59c-0.7,1.45-2.15,3.12-3.86,3.86
                        c-1.45,2.91-1.07,5.07-1.46,6.7c-0.72,3-2.53,2.84-2.87,6.24c-0.13,1.32,0.23,1.94,0.58,3.45c-1.22,2.35-5.23,2-8.05-0.62
                        c-3.11-2.88-3.14-6.04-2.64-8.93c-0.95,0.61-1.85,0.83-3.86,2.86c-4.08,4.13-6.96,2.09-6.96,2.09s-7.63-6.4-11.85-9.83
                        l-0.14-0.25c-1.14-0.34-2.23-0.61-3.19-0.78c-4.48-0.78-10.64-0.47-10.64-0.47s-0.93-2.17,0.68-4.78
                        c1.6-2.61,8.77-3.2,13.06-2.64l0.03-0.04c-3.71-3.09-9.05-7.41-11.75-9.19c-3.45-2.28,2.13-3.77,4.97-3.75
                        c3.74,0.03,10.29,3.8,11.86,6.38c2.33-1.24,3.47-2.31,7.63-3.03l0.03-0.11c-1.98-0.65-3.73-1.25-4.71-1.71
                        c-3.73-1.77-6.54-10.1-6.54-10.1c-2.31-4.94,1.76-6.12,4.66-7.92c2.91-1.8,10.32-3.47,8.89,1.47s-3.66,6.64-3.66,6.64"/>
                    </g>
                    <path fill="none" stroke="#231F20" stroke-linecap="round" stroke-linejoin="round" d="M-65.43,9.06
                        c-3.28,2.31-5.92,1.32-9.06,1.83c-3.98,0.64-10.13,5.02-11.24,6.19c-1.4,1.47-3.35,1.8-4.47,1.2c-1.74-0.94-8.93-4.02-13.41-4.8
                        S-114.24,13-114.24,13s-0.93-2.17,0.68-4.78c1.6-2.61,8.77-3.2,13.06-2.64"/>
                    <path fill="none" stroke="#231F20" stroke-linecap="round" stroke-linejoin="round" d="M-64.35,1.18
                        c-1.23,2.09-5.31,2.86-8.44,2.6c-3.13-0.25-15.63,4.31-15.63,4.31c-2.2,1.06-6.04,2.68-8.09,0.8c-0.89-0.82-11.5-9.77-15.71-12.54
                        c-3.45-2.28,2.13-3.77,4.97-3.75c3.74,0.03,10.29,3.8,11.86,6.38c2.33-1.24,3.47-2.31,7.63-3.03"/>
                    <path fill="none" stroke="#231F20" stroke-linecap="round" stroke-linejoin="round" d="M-78.39-0.96
                        c-3.21-1.42-11.42-3.67-14.04-4.91c-3.73-1.77-6.54-10.1-6.54-10.1c-2.31-4.94,1.76-6.12,4.66-7.92c2.91-1.8,10.32-3.47,8.89,1.47
                        s-3.66,6.64-3.66,6.64"/>
                    <path fill="none" stroke="#231F20" stroke-linecap="round" stroke-linejoin="round" d="M-91.07-15.71
                        c4.18-0.11,11.18,1.61,14.16,2.71c6.65-13.99,18.68-17.9,21.2-17.47c2.52,0.44,8.77,8.41,9.02,11.91
                        c2.79,2.21,6.74,2.83,10.02,2.24c3.27-0.59,30.07-6.52,33.61-5.33c3.54,1.19,14.29,14,17.33,13.09c3.04-0.91,5.52-1.93,7.81-1.82
                        s1.85,2.62,4.46,4.23c2.6,1.6,12.97,1.67,16.42,1.69S39,10.13,39,10.13c-2.8-0.48-12.42-6.47-15.5-7.01
                        C20.42,2.59-0.48,6.76-3.27,6.27C-6.07,5.79-30.3-4.61-35.52-6.09c-5.22-1.48-15.62-0.82-15.62-0.82
                        c-3.25,5.49-7.27,13.73-8.17,15.59c-0.9,1.86-3.01,4.09-5.35,4.26s-14.03,6.49-16.8,9.3c-4.08,4.13-6.96,2.09-6.96,2.09
                        s-7.63-6.4-11.85-9.83"/>
                    <path fill="none" stroke="#231F20" stroke-linecap="round" stroke-linejoin="round" d="M-77.6,19.36
                        c-0.5,2.89-0.48,6.07,2.64,8.96c2.82,2.62,6.83,2.97,8.05,0.62c-0.35-1.5-0.71-2.13-0.58-3.45c0.34-3.4,2.15-3.24,2.87-6.24
                        c0.39-1.62,0.01-3.79,1.46-6.71"/>
                </g>
                <path fill="#9DAB83" d="M5.77,0.03c0-2.62-2.13-4.75-4.75-4.75s-4.75,2.13-4.75,4.75s2.13,4.75,4.75,4.75S5.77,2.66,5.77,0.03z"/>
                <path fill="#9DAB83" d="M-59.58-12.61c0-2.62-2.13-4.75-4.75-4.75s-4.75,2.13-4.75,4.75s2.13,4.75,4.75,4.75 S-59.58-9.98-59.58-12.61z"/>
                <g>
                    <path fill="#F5F4DD" stroke="#231F20" stroke-width="4" d="M112.83,22.38c-4.42,4.64-9.03,6.83-11.53,6.55
                        c-4.23-0.48-5.68-6.24-8.96-7.82c-3.28-1.58-7.16,1.81-9.18,1.71s-2.32-4.21-6.54-6.21c-4.22-2-14.39,1.06-16.94,1.13
                        s-2.3,0.11-5.95-2.3c-10.27,5.07-15.01,1.72-21.48-1.94c0,0,11.3-12.51,9.54-27.27c6.69,0.9,7.79,3.38,11.14,5.99
                        c2.33-4.67,4.12-7.66,5.59-7.4S69.85-4.35,74.99-4.72s5.14-0.38,5.14-0.38s0.88,1.31,2.41,3.03c5.75,0.49,17.8-2.57,20.47-1.86
                        c2.67,0.71,0.04,8.26,5.23,11.96c0,0,4.66,0.9,5.5,2.99C115.26,14.76,112.83,22.38,112.83,22.38z"/>
                    <path fill="none" stroke="#231F20" stroke-linecap="round" stroke-linejoin="round" d="M109.68,8.89 c-5.2-3.69-3.99-12.11-6.66-12.82c-2.67-0.71-15.1,2.21-20.85,1.72"/>
                    <path fill="#F5F4DD" d="M115.66,22.69c-4.42,4.64-9.03,6.83-11.54,6.55c-4.23-0.48-8.51-6.55-11.79-8.13 c-3.28-1.58-7.16,1.81-9.18,1.71s-2.32-4.21-6.54-6.21c-4.22-2-14.39,1.06-16.94,1.13s-2.3,0.11-5.95-2.3 c-10.27,5.07-15.01,1.72-21.48-1.94c0,0,11.3-12.51,9.54-27.27c6.69, 0.9,7.79,3.38,11.14,5.99c2.33-4.67,4.12-7.66,5.59-7.4 S69.85-4.35,74.99-4.72s5.14-0.38,5.14-0.38s0.88,1.31,2.41,3.03c5.75,0.49,17.8-2.57,20.47-1.86c2.67,0.71,1.46,9.13,6.66,12.82 c0,0,5.55-1.39,6.9,2.42C117.92,15.13,115.66,22.69,115.66,22.69z"/>
                    <g>
                        <g>
                            <path fill="#C1B49A" d="M59-10.06c-2.44-0.55-5.2,0.59-5.2,0.59c1.92-3.68,3.44-5.94,4.73-5.71c1.09,0.19,6.7,5.96,11.64,8.85
                                C70.17-6.33,61.44-9.51,59-10.06z"/>
                            <path fill="#C1B49A" d="M53.14-8.18l0.43,8.55L41.8-7.44c0.23-2.04,0.26-4.16,0-6.32c6.69,0.9,7.79,3.38,11.14,5.99
                                C53.01-7.92,53.07-8.05,53.14-8.18z"/>
                            <path fill="#C1B49A" d="M110.26,12.35c0,0-5.93-9.04-9.21-11.03S90.61-2.61,90.61-2.61c5.24-0.71,10.72-1.78,12.41-1.33
                                c2.67,0.71,1.46,9.13,6.66,12.82c0,0,5.09-1.53,6.13,1.14C111.3,9.8,110.26,12.35,110.26,12.35z"/>
                            <path fill="#C1B49A" d="M98.07,5.61C92.07,5.86,83.74-0.7,83.74-0.7l-5.81,1.41l-2.94-5.44c5.14-0.38,5.14-0.38,5.14-0.38
                                s0.88,1.31,2.41,3.03c2.04,0.17,4.89-0.11,7.82-0.5C90.37-2.57,86.96,1.99,98.07,5.61z"/>
                        </g>
                        <path fill="none" stroke="#231F20" stroke-linecap="round" stroke-linejoin="round" d="M98.07,5.61
                            C88.19,6.95,80.13-5.1,80.13-5.1s0,0-5.14,0.38s-14.98-10.2-16.46-10.46s-3.26,2.73-5.59,7.4c-3.35-2.61-4.45-5.08-11.14-5.99 C43.56,1,32.26,13.5,32.26,13.5c6.47,3.66,11.22,7.02,21.48,1.94c3.64,2.41,3.4,2.36,5.95,2.3s12.72-3.13,16.94-1.13
                            c4.22,2,4.53,6.11,6.54,6.21s5.9-3.29,9.18-1.71c3.28,1.58,7.55,7.65,11.79,8.13c2.5,0.28,7.12-1.91,11.54-6.55"/>
                    </g>
                </g>

            <path opacity="0.46" fill="#8A5D3B" d="M68.42,6.14c0-2.62-2.13-4.75-4.75-4.75s-4.75,2.13-4.75,4.75s2.13,4.75,4.75,4.75
                S68.42,8.77,68.42,6.14z"/>
            <path opacity="0.46" fill="#8A5D3B" d="M58.21,2.14c0-0.99-0.8-1.79-1.78-1.79s-1.78,0.8-1.78,1.79c0,0.98,0.8,1.78,1.78,1.78
                S58.21,3.13,58.21,2.14z"/>
        </symbol>

        <symbol  id="kopf" viewBox="-46.6 -65.16 93.19 130.31">
            <path fill="none" stroke="#231F20" stroke-width="4" d="M39.59,34.81C17.84,56.23-7.58,56.14-10.58,56.14s-7-3-9-6s-5-9-7-12
                l-0.34-0.27c-5.99,0.22-11.84-4.95-14.11-8.42c-1.98-3.01,1.1-9.22,4.1-13.22s-6.33-12.3-6.55-15.46
                c-0.21-3.09,2.88-4.48,3.73-5.65c0.83-1.14-5.26-8.99-4.83-14.98c0.12-1.62,1.23-2.37,2-3c1.02-0.83,21.12-10.06,26-22
                c0.06-3.81-6-6-7-9s2-7,4-8s6.44,7.44,7,6c0.69-1.77,8.06-9.12,15.81-6.88c0,0,2.44,3.23,4.31,6.62c0.82-1.47,1.57-2.96,4.08-3.61
                c1.36-0.36,2.4,0.17,5.3-2.8l7.33,0.83C4.28-34.39,7.24-25.22,8.42-10.86l0.42,0.69c0.9-2.15,3.03-2.92,4.58-3.69c2-1,3,1,3,3
                s-2,2,2,4c0.99,0.49,4.38,3.81,4.38,3.81c4.58,4.32,21.21,12.73,21.79,27.19C44.75,28.16,41.74,32.69,39.59,34.81z"/>
            <path fill="#E6E3CA" stroke="#231F20" d="M-36.58-25.86c-1-5-1-7,0-8s4-3,5-3s1,7,2,8S-36.58-25.86-36.58-25.86z"/>
            <path fill="#E6E3CA" stroke="#231F20" d="M-17.67-47.62c-2,2-5,3-5,1c0-2,2-5,2-5L-17.67-47.62z"/>
            
            <path fill="url(#SVGID_3_)" d="M39.59,34.81C17.84,56.23-7.58,56.14-10.58,56.14s-7-3-9-6s-5-9-7-12l-0.34-0.27
                c-5.99,0.22-11.84-4.95-14.11-8.42c-1.98-3.01,1.1-9.22,4.1-13.22s-6.33-12.3-6.55-15.46c-0.21-3.09,2.88-4.48,3.73-5.65
                c0.83-1.14-5.26-8.99-4.83-14.98c0.12-1.62,1.23-2.37,2-3c1.02-0.83,21.12-10.06,26-22c0.06-3.81-6-6-7-9s2-7,4-8s6.44,7.44,7,6
                c0.69-1.77,8.06-9.12,15.81-6.88c0,0,2.44,3.23,4.31,6.62c0.82-1.47,1.57-2.96,4.08-3.61c1.36-0.36,2.4,0.17,5.3-2.8l7.33,0.83
                C4.28-34.39,7.24-25.22,8.42-10.86l0.42,0.69c0.9-2.15,3.03-2.92,4.58-3.69c2-1,3,1,3,3s-2,2,2,4c0.99,0.49,4.33,3.17,4.33,3.17
                c1.55,2.67,21.26,13.37,21.83,27.83C44.75,28.16,41.74,32.69,39.59,34.81z"/>
            <path fill="#9F1600" d="M-15.93-44.4c0,0,0.95-2.88,1.16-6.58c0.21-3.69-0.62-7.59-0.62-7.59s-1.85,11.5-2.26,8.62
                c-0.41-2.87-2.38-1.21-2.38-1.21L-15.93-44.4"/>
            <path fill="none" stroke="#899384" stroke-linecap="round" d="M-39.8-23.96c-0.91,2.22-0.13,3.78,0.39,4.3"/>
            <path fill="none" stroke="#899384" stroke-linecap="round" d="M-35.12-27.02c-0.49,2.35,0.57,3.74,1.18,4.16"/>
            <path fill="none" stroke="#899384" stroke-linecap="round" d="M-30.59-30.07c-0.32,2.25,0.87,3.42,1.53,3.73"/>
            <path fill="none" stroke="#899384" stroke-linecap="round" d="M-26.28-33.37c-0.2,2.04,1.05,2.89,1.72,3.07"/>
            <path fill="#9F1600" d="M-8.36-43.35c0-1.54-1.25-2.79-2.79-2.79c-1.54,0-2.79,1.25-2.79,2.79c0,1.54,1.25,2.79,2.79,2.79
                C-9.61-40.56-8.36-41.81-8.36-43.35z"/>
            <path fill="#9F1600" d="M-9.69-39.46c0-0.77-0.62-1.39-1.39-1.39s-1.39,0.62-1.39,1.39s0.62,1.39,1.39,1.39S-9.69-38.69-9.69-39.46
                    z"/>
            <path fill="#9F1600" d="M-16.65-35.03c0-0.77-0.62-1.39-1.39-1.39s-1.39,0.62-1.39,1.39s0.62,1.39,1.39,1.39
                S-16.65-34.27-16.65-35.03z"/>
            <path opacity="0.31" fill="#525743" d="M-8.08-12.61c0-1.93-1.57-3.5-3.5-3.5s-3.5,1.57-3.5,3.5s1.57,3.5,3.5,3.5
                S-8.08-10.67-8.08-12.61z"/>
            <path opacity="0.31" fill="#525743" d="M-12.02,39.04c0-1.93-1.57-3.5-3.5-3.5s-3.5,1.57-3.5,3.5s1.57,3.5,3.5,3.5
                S-12.02,40.98-12.02,39.04z"/>
            <path opacity="0.31" fill="#525743" d="M26.42,33.89c0-1.93-1.57-3.5-3.5-3.5s-3.5,1.57-3.5,3.5s1.57,3.5,3.5,3.5
                S26.42,35.83,26.42,33.89z"/>
            <path opacity="0.31" fill="#FFFFFF" d="M-15.19-19.36c0-1.45-1.18-2.63-2.63-2.63s-2.63,1.18-2.63,2.63s1.18,2.63,2.63,2.63
                S-15.19-17.9-15.19-19.36z"/>
            <path opacity="0.31" fill="#FFFFFF" d="M-23.44-15.11c0-1.45-1.18-2.63-2.63-2.63s-2.63,1.18-2.63,2.63s1.18,2.63,2.63,2.63
                S-23.44-13.65-23.44-15.11z"/>
            <path opacity="0.31" fill="#FFFFFF" d="M16.06,23.39c0-1.45-1.18-2.63-2.63-2.63s-2.63,1.18-2.63,2.63s1.18,2.63,2.63,2.63
                S16.06,24.85,16.06,23.39z"/>
            <path fill="#9DAB83" d="M-1.8-23.31c0-2.62-2.13-4.75-4.75-4.75s-4.75,2.13-4.75,4.75s2.13,4.75,4.75,4.75S-1.8-20.69-1.8-23.31z"
                />
            <path fill="none" stroke="#231F20" d="M-26.58,38.14c2,3,5,9,7,12s6,6,9,6s28.42,0.09,50.17-21.33c2.15-2.12,5.16-6.65,5-10.67
                C44.02,9.68,25.16-0.63,22.76-3.69"/>
            <path fill="none" stroke="#231F20" d="M8.85-10.17c-5-7-5.05-23.44-1.49-30.88c2.16-4.51,3.03-7.34,2.06-10.81
                c-1.19-4.25-6.19-10.88-6.19-10.88c-7.75-2.25-15.12,5.11-15.81,6.88c-0.56,1.44-5-7-7-6s-5,5-4,8s7.06,5.19,7,9
                c-4.88,11.94-24.98,21.17-26,22c-0.77,0.63-1.88,1.38-2,3C-45-13.87-38.92-6.02-39.75-4.88c-0.85,1.17-3.95,2.56-3.73,5.65
                c0.22,3.16,9.55,11.46,6.55,15.46s-6.08,10.21-4.1,13.22c2.28,3.47,8.12,8.64,14.11,8.42c3.16-0.11,8.24-1.78,12.38-4.79"/>
            <path fill="none" stroke="#231F20" d="M9.42,14.14c7,3,20,0,21-4s-8-15-12-17s-2-2-2-4s-1-4-3-3s-5,2-5,6"/>
            <path fill="none" stroke="#231F20" stroke-linecap="round" d="M12.42,9.14c2,2,12,3,12-2"/>
            <path fill="none" stroke="#231F20" stroke-linecap="round" stroke-linejoin="round" d="M20.15,8.88c-4.48-2.23-6.59-5.17-5.37-6.32
                c1.14-1.07,5.6-0.81,3.84-2.87c-1.44-1.68-2.96-2.18-5.19-2.55"/>
            <path fill="#5F0003" d="M-26.67,24.67c6.64-1.83,11.97-5.19,17.94-14.43C-9.04,2.6-15.31-3.5-23.03-3.5
                c-7.91,0-14.33,6.42-14.33,14.33C-37.36,17.48-32.82,23.06-26.67,24.67z"/>
            <path fill="url(#SVGID_4_)" stroke="#231F20" stroke-width="2" d="M-27.5,25.69c6.25-1.72,11.28-4.89,16.9-13.59
                    c-0.29-7.2-6.2-12.95-13.47-12.95c-7.46,0-13.5,6.04-13.5,13.5C-37.58,18.91-33.3,24.17-27.5,25.69z"/>
            <path fill="none" stroke="#231F20" d="M-33.82,27.61c12-2,19-4,29-24"/>
            <path fill="none" stroke="#231F20" d="M8.42-10.86C7.24-25.22,4.28-34.39,24.26-61.69l-7.33-0.83c-2.89,2.97-3.94,2.44-5.3,2.8
                c-2.55,0.67-3.29,2.19-4.12,3.69"/>
            <path fill="#231F20" d="M0.38,59.74c0.85,1.27-7.04-10.37-7.8-9.77c-1.78,1.05,18.1,5.96,12.46,1.92c2.74,4.39-7.47-4.15-8.53-6.1
                c3.9-1.76,9.21,6.26,10.07,3.27c2.2,6.08,8.13-3.81,3.4-4.35c1.33,2.78,8.37,9.7,4.26-0.13c0.71,2.1,3.44,3.97-1.44-5.62
                c4.61,8.44,16.82,7.45,15.06,12.92c-7.04-2.37,3.51-16.54,4.68-15.46c-6.26,8.73-1.21,5.8-2.59,3.8c-9.3,5.34,5.54,9.55,4.83,13
                c2.86,1.36-7.58-6.31-4.03-0.17c-6.49-8.22-0.67,2.57-9.36,8.04c3.89-4.63-8.05-6.43,0.99-13.12c1.58,6.05-4.57,11.1-7.3,8.25
                c2.21,7.28-2.62-1.45,1.62,2.47c-6.19-1.34-3.54,7.82-10.59-1.09c-1.32,7.87,2.37,0.43,2.69-1.78C0.98,62.5-1.71,62.55-2.54,65.16
                C-6.51,62.12,1.83,59.67,0.38,59.74z"/>
            <path fill="#9F1600" d="M-30.89,13.02l1.88,0.38c-0.18,0.87-0.95,1.53-1.87,1.53c-1.06,0-1.91-0.86-1.91-1.91s0.86-1.91,1.91-1.91
                c0.81,0,1.5,0.5,1.77,1.21L-30.89,13.02z"/>
        </symbol>

        <symbol  id="torso" viewBox="-27.97 -93.09 55.95 186.17">
            <path fill="#C4BA79" stroke="#231F20" stroke-width="4" d="M-20.9-22.24c0,0-5.42-53.8-5.06-61.02c17.33,8.3-2.53,7.58,19.14,0.36
                c21.66-7.22,20.58-10.11,26.36-6.86c5.78,3.25,3.25-6.14,1.08,12.64s-2.89,18.05,1.08,27.08s3.61,24.92,1.81,32.14s-26,8.3-26,8.3
                L-20.9-22.24z"/>
            <path fill="#C4BA79" d="M-20.9-22.24c0,0-5.42-53.8-5.06-61.02c17.33,8.3-2.53,7.58,19.14,0.36c21.66-7.22,20.58-10.11,26.36-6.86
                c5.78,3.25,3.25-6.14,1.08,12.64s-2.89,18.05,1.08,27.08s3.61,24.92,1.81,32.14s-26,8.3-26,8.3L-20.9-22.24z"/>
            <path fill="#A1976B" d="M-21.64-29.73c-0.23-2.32-0.49-5.07-0.78-8.08l7.97,9.3c0,0,5.9,4.21,9.55,3.93s-5.06-21.07-5.06-21.07
                L4.94-18.68c0,0,0.84,0.56-0.28-5.62c-1.12-6.18,6.46,7.03,6.46,7.03s3.93,5.9,1.41-6.18c-2.53-12.08,5.62-8.15,5.62-8.15l6.64,2.6
                c-0.11,4.38-0.59,8.36-1.27,11.1c-1.81,7.22-26,8.3-26,8.3l-16.78-11.51L-21.64-29.73z"/>
            <g>
                <path fill="#F5F4DD" stroke="#231F20" stroke-width="4" d="M7.31,90.61c29-16.5,4.71-76.5,14.71-95c8.59-15.9,0.5-16,0.5-16
                    s-2.5,11-16.5,5.5s-21-9-28-5.5s2,25,2,40s-4.5,38.5-3.5,44.5S7.31,90.61,7.31,90.61z"/>
                <path fill="#F5F4DD" d="M7.31,90.61c29-16.5,4.71-76.5,14.71-95c8.59-15.9,0.5-16,0.5-16s-2.5,11-16.5,5.5s-21-9-28-5.5s2,25,2,40
                    s-5.55,38.77-3.5,44.5C-8.83,105.08,7.31,90.61,7.31,90.61z"/>
                <path fill="#F5F4DD" stroke="#231F20" stroke-width="4" d="M16.05-15.45"/>
                <path fill="#F5F4DD" stroke="#231F20" d="M-21.37-4.96c0.39-6.69-1.18-10.03,8.26-11.6"/>
                <path fill="#F5F4DD" stroke="#231F20" d="M8.53,73.12C7.54,57.19,6.36,47.16-4.46,36.34"/>
                <path fill="none" stroke="#231F20" d="M6.36,73.71c-2.56-8.85-1.18-13.57-7.08-17.7"/>
                <path opacity="0.46" fill="#8A5D3B" d="M-9.24,42.37c0-1.54-1.25-2.79-2.79-2.79c-1.54,0-2.79,1.25-2.79,2.79
                    c0,1.54,1.25,2.79,2.79,2.79C-10.49,45.16-9.24,43.91-9.24,42.37z"/>
                <path fill="#9F1600" d="M-11.52,34.1c0-1.54-1.25-2.79-2.79-2.79c-1.54,0-2.79,1.25-2.79,2.79c0,1.54,1.25,2.79,2.79,2.79
                    C-12.77,36.9-11.52,35.64-11.52,34.1z"/>
                <path fill="#9F1600" d="M-6.85,21.1c0-1.54-1.25-2.79-2.79-2.79c-1.54,0-2.79,1.25-2.79,2.79c0,1.54,1.25,2.79,2.79,2.79
                    C-8.1,23.9-6.85,22.64-6.85,21.1z"/>
                <path opacity="0.46" fill="#8A5D3B" d="M4.04,31.87c0-0.99-0.8-1.79-1.78-1.79s-1.78,0.8-1.78,1.79c0,0.98,0.8,1.78,1.78,1.78
                    S4.04,32.86,4.04,31.87z"/>
                <path opacity="0.46" fill="#8A5D3B" d="M-9.01-4.52c0-1.59-1.29-2.88-2.88-2.88s-2.88,1.29-2.88,2.88s1.29,2.88,2.88,2.88
                    S-9.01-2.93-9.01-4.52z"/>
                <g>
                    <path fill="#9F1600" d="M-1.84,25.48c5.73,7.67,0.45,9.29-3.47-3.23c0.26,3.62,2.38,3.32,0.34-4.09
                        c3.29-4.28,1.12-4.89,0.67-5.91C2.13,0.74,10.87,1.82,0.14,7.12C8.53-9.84,1.76-4.18-5.15,6.69C-7.46-7.81-5.75-11.5-8.26,3.32
                        c-5.39-19.08-7.57-15.66-3.83-0.38c-10.18-20.08-12.87-28.92-3.11-3.2c-13.72-14.56-5.27-13.85,3.07,6.77
                        c-5.66-5.2-11.56-3.59-0.77,7.13c-7.42-1.78-3.69-6.17,2.59-1.04c-2.88-4.45-4.23-0.54,0.81,2.16c3.16,1.48,5.18-2.18,6.48,1.51
                        c11.57,3.91,12.31,3.32,4.06,4.43c13.03,13.66,12.19,13.65-0.48,6.51c7.14,22.24,5.88,21.47-4.04,5.46
                        c1.51,25.28,2.94,18.47-0.27-3.37C1.45,41.95,5.8,42.23-1.84,25.48z"/>
                </g>
            </g>
            <path fill="#A1976B" d="M18.95-62.46l-1.09-0.89l-3.93-21.63c0,0-6.18,1.4-4.5,5.9c1.69,4.49,7.87,47.2,4.5,30.62
                C10.55-65.04-3.21-79.64-3.21-79.64s7.02,22.48,3.65,13.77c-3.37-8.71-12.36-10.12-12.36-10.12l-4.78,10.96l-8.75-7.35
                c-0.38-5.23-0.59-9.24-0.51-10.88c7.06,3.38,7.95,5.27,7.99,5.83c0.29-0.56,2.09-2.44,11.15-5.46
                c21.66-7.22,20.58-10.11,26.36-6.86c5.78,3.25,3.25-6.14,1.08,12.64C19.79-69.91,19.17-65.58,18.95-62.46z"/>
            <path fill="none" stroke="#231F20" d="M18.14-31.6c0,0-4.25-28.58-21.35-48.04"/>
            <path fill="none" stroke="#231F20" d="M4.94-18.68C1.53-27.82-4.54-38.75-9.96-45.65"/>
            <path opacity="0.46" fill="#8A5D3B" d="M22.36,15.95c0-2.62-2.13-4.75-4.75-4.75s-4.75,2.13-4.75,4.75s2.13,4.75,4.75,4.75
                S22.36,18.57,22.36,15.95z"/>
                <path opacity="0.46" fill="#8A5D3B" d="M20.96,51.91c0-1.85-1.5-3.35-3.34-3.35c-1.85,0-3.35,1.5-3.35,3.35
                    c0,1.85,1.5,3.34,3.35,3.34C19.46,55.25,20.96,53.75,20.96,51.91z"/>
        </symbol>
                    
        <symbol width="253" height="315" id="zombie" viewBox="0 0 253 315"  overflow="hidden">
            <g transform="scale(1 -1) ">
                <use xlink:href="#kopf_1_"  width="93.19" height="130.31" x="80" y="-240" transform="matrix(1 0 0 1 74.189 92.4453)" overflow="visible"/>

                <use xlink:href="#armHinten" class="arm1" width="226.11" height="63" x="20" y="-205" transform="matrix(1 0 0 1 -9.3394 18.3184)" overflow="visible"/>

                <use xlink:href="#torso_1_"  width="55.95" height="186.17" x="100" y="-270" transform="matrix(1 0 0 1 98.5913 -64.5156)" overflow="visible"/>

                <use xlink:href="#armVorne_1_"  width="234.01" height="66" x="10" y="-210" transform="matrix(1 0 0 1 -9.5605 3.4453)" overflow="visible"/>
            </g>
        </symbol>

        <symbol id="dust"  width="1222px" height="500px" viewbox="0 0 1222 500" preserveAspectratio="none">
            <g>
                <path opacity="0.5" fill="#929497" d="M1222,331.31v-78.77c-105.77-0.38-103.02,46.84-207.74,45.28c-67.21-1-145.42-16-197.96,15
                    c-71.22,42.02-102.7,40.15-173.52,24c-149.08-34-174.75-6-277.39-18c-102.65-12-78.21-16-144.2-38
                    C160.36,260.55,105.77,252.17,0,252.55v154.06c86.76,0,190.63,44.22,311.61,4.22c80.64-26.66,185.99-50.84,245.62-18
                    c63.54,35,245.62,60,309.17,52c37.01-4.66,266.6-36.83,355.6-38.22V331.31z"/>
                <path opacity="0.5" fill="#929497" d="M662.32,260.83c0,7.18-55.26,19-123.42,19c-68.17,0-123.42-11.82-123.42-19
                    s55.26-13,123.42-13C607.07,247.83,662.32,253.65,662.32,260.83z"/>
                <path opacity="0.5" fill="#929497" d="M446.03,428.83c-4.89,19-55.26,19-123.42,19c-68.17,0-123.42-11.82-123.42-19
                    s62.32-24,150.31-22C417.63,408.38,447.84,421.8,446.03,428.83z"/>
            </g>
        </symbol>

        <symbol width="1222px" height="500" id="dustlong" overflow="visible">
            <use xlink:href="#dust" width="1223" height="500" x="0" y="0" overflow="hidden"/>
            <use xlink:href="#dust" width="1222" height="500" x="-1222" y="0" overflow="hidden"/>
        </symbol>

        <symbol width="1222px" height="500" id="dustlong2" overflow="visible">
            <use xlink:href="#dust" width="1223" height="500" x="0" y="-500" overflow="hidden" transform="scale(1 -1)"/>
            <use xlink:href="#dust" width="1222" height="500" x="-1222" y="-500" overflow="hidden" transform="scale(1 -1)"/>
        </symbol>

        <symbol width="657px" height="65" id="bone" viewBox="0 0 657 65" overflow="visible">
            <path fill="#231F20" d="M183.23,31.12c-41.13,0-116.32,0-132.39-7.07C44.42,13.12,41.35-1.2,23.85,4.13
                C9.07,8.62,7.14,21.48,10.35,25.33c8.44,10.13,11.57,7.07,4.5,14.78c-7.07,7.71-13.22,17.67,1.93,22.49
                c14.14,4.5,23.14-2.57,26.35-17.35c16.69-1.04,140.1-3.21,140.1-3.21h487.14V31.12H183.23z"/>
            <path fill="url(#SVGID_5_)" stroke="#231F20" stroke-width="4" d="M177.82,30.15c-41.13,0-116.32,0-132.39-7.07
                C39,12.16,35.94-2.16,18.44,3.16C3.66,7.66,1.73,20.51,4.94,24.37c8.44,10.13,11.57,7.07,4.5,14.78s-13.22,17.67,1.93,22.49
                c14.14,4.5,23.14-2.57,26.35-17.35c16.69-1.04,140.1-3.21,140.1-3.21h487.14V30.15H177.82z"/>
            <g>
                <path fill="#A18E6E" d="M660.7,29v4.82H173.55c0,0-123.41,2.17-140.1,3.21C30.24,51.81,21.24,58.88,7.1,54.38
                    c-2.09-0.67-2.48-1.72-3.82-2.56c0.3,3.35,1.6,6.62,8.05,8.67c14.14,4.5,23.14-2.57,26.35-17.35c16.69-1.04,140.1-3.21,140.1-3.21
                    h487.14V29H660.7z"/>
            </g>
            <path fill="none" stroke="#231F20" stroke-width="3" d="M11.64,37.68c2.57-3.86,5.14-3.86,5.14-7.07c0-3.21-1.29-5.14-1.29-5.14"/>
        </symbol>
    </defs>


     <svg width="100%" x="0" y="200" height="500" overflow="visible" viewbox="0 0 1222 500" preserveAspectratio="none">
        <use xlink:href="#dustlong2" class="dust2" width="200%" height="500" x="0" y="0" overflow="hidden"/>
    </svg>

    <svg width="100%" x="340" height="100%" overflow="visible" >
        <set id="translateZombie" attributeName="x" attributeType="XML" to="0" begin="unTranslateZombie.end" dur="16s"/>
        <set id="unTranslateZombie" attributeName="x" attributeType="XML" to="340" begin="0s; translateZombie.end" dur="16s"/>

        <g  class="walkingZombie" id="walkingzombie">
            <animateTransform attributeType="XML" id="mirrorzombie" attributeName="transform" type="scale" from="-1 1" to="-1 1" begin="0s; unmirrorzombie.end" dur="16s" repeatCount="1"/>
            <animateTransform attributeType="XML" id="unmirrorzombie" attributeName="transform" type="scale" from="1 1" to="1 1" begin="mirrorzombie.end" dur="16s" repeatCount="1"/>

            <svg class="walkingZombie" preserveAspectRatio="xMinYMin meet" width="353" height="615" id="zombie" viewBox="0 0 253 315" x="0" y="45" overflow="visible">
                <animate attributeName="x" id="moveright" begin="0s; moveleft.end" values="340px; -100%" dur="16s" repeatCount="1" />
                <animate attributeName="x" begin="moveright.end" id="moveleft" values="100%; -340px" dur="16s" repeatCount="1" />
                <animate attributeName="y" values="45; 52; 44; 53; 45; 54; 44; 52; 46; 55; 42; 55; 44; 56; 46; 50; 46; 56; 44; 56; 45; 52; 45; 52; 44; 53; 45; 54; 44; 52; 46; 55; 42; 55; 44; 56; 46; 50; 46; 56; 44; 56; 45; 52" dur="16s" repeatCount="indefinite" />

                <g transform="scale(1 -1)">
                    <use xlink:href="#armHinten" class="arm1" width="226.11" height="63" x="20" y="-205" transform="matrix(1 0 0 1 -9.3394 18.3184)" overflow="visible"/>
                    <use xlink:href="#kopf" class="kopf" width="93.19" height="130.31" x="80" y="-240" transform="matrix(1 0 0 1 74.189 92.4453)" overflow="visible"/>
                    <use xlink:href="#torso" class="torso" width="55.95" height="186.17" x="100" y="-270" overflow="visible"/>
                    <use xlink:href="#armVorne" class="arm2" width="234.01" height="66" x="10" y="-210" transform="matrix(1 0 0 1 -9.5605 3.4453)" overflow="visible"/>
                </g> 
            </svg>
        </g>
    </svg>

    <svg width="100%" x="0" height="500" overflow="visible" viewbox="0 0 1222 500" preserveAspectratio="none">
        <use xlink:href="#dustlong" class="dust1" width="200%" height="500" x="0" y="0" overflow="hidden"/>
    </svg>

    <!-- top left frame element: -->
    <svg width="50%" height="50%">
        <use xlink:href="#bone" width="657" height="65" y="20"/>
        <use xlink:href="#bone" width="657" height="65" x="10" transform="rotate(90 55 48)"/>
    </svg>

    <!-- top right frame element: -->
    <g  transform="scale(-1, 1)">
        <svg width="50%" height="50%" x="-100%" y="0">
            <use xlink:href="#bone" width="657" height="65" y="20"/>
            <use xlink:href="#bone" width="657" height="65" x="10" transform="rotate(90 55 48)"/>
        </svg>
    </g>

    <!-- bottom left frame element: -->
    <g transform="scale(1, -1)">
        <svg width="50%" height="50%"  x="0" y="-100%" clip-path="url(#crop)">
            <use xlink:href="#bone" width="657" height="65" y="20"/>
            <use xlink:href="#bone" width="657" height="65" x="10" transform="rotate(90 55 48)"/>
        </svg> 
    </g>

    <!-- bottom right frame element: -->
    <g  transform="scale(-1, -1)">
        <svg width="50%" height="50%" x="-100%" y="-100%"  clip-path="url(#crop)">
            <use xlink:href="#bone" width="657" height="65" y="20"/>
            <use xlink:href="#bone" width="657" height="65" x="10" transform="rotate(90 55 48)"/>
        </svg>
    </g>
</svg>
