<?xml version="1.0" encoding="utf-8"?>
<!DOCTYPE svg PUBLIC "-//W3C//DTD SVG 1.1//EN" "http://www.w3.org/Graphics/SVG/1.1/DTD/svg11.dtd" [
]>
	<svg version="1.1" xmlns="http://www.w3.org/2000/svg" xmlns:xlink="http://www.w3.org/1999/xlink">
		<style type="text/css">
		<![CDATA[
			.dottedline{
				fill:none;
				stroke:#FFFFFF;
				stroke-width:2;
				stroke-dasharray:4;
				}

			.redbg{
				fill:#933627;
				stroke:#382A00;
				stroke-width:20;
				}
		]]>
		</style>

		<defs>
			<symbol  id="topleft" viewBox="0 0 700 700" >
				<path d="M9.89,713.891V160.925c0-61.566,12.575-70.987,17.722-77.622c2.888-3.723,0.233-19.474-2.113-23.468
				c-2.347-3.993-0.422-9.633,4.274-12.531l35.739-22.062c4.696-2.898,11.679-2.04,15.518,1.91l8.275,7.415
				c4.325,3.418,11.386,3.396,15.69-0.051l41.933-22.313c5.172-1.949,13.879-2.861,19.35-2.028l47.891,4.106H721.62v699.608H9.89z"/>
			</symbol>
			<symbol  id="topright" viewBox="0 0 700 700">
				<use xlink:href="#topleft"/>
			</symbol>
			<symbol  id="bottomleft" viewBox="0 0 700 700">
				<path d="M721.62-23.813v713.584H214.168c-10.748-0.162-22.681-1.328-35.123-3.609
				c-22.329-4.096-45.88-14.549-45.88-14.549c-5.054-2.242-19.274-1.055-22.91,0.201c-3.635,1.258-9.107-1.469-12.158-6.061
				c0,0-13.929-20.953-35.587-33.941c-13.711-8.223-29.521-12.949-29.521-12.949c-5.3-1.584-10.672-3.959-11.056-4.363
				c-0.385-0.406,4.292-9.051,5.961-12.35c1.669-3.299,0.781-9.902-1.973-14.674c0,0-16.031-22.541-16.031-48.186V-23.813H721.62z"/>
			</symbol>

			<symbol  id="bottomright" viewBox="0 0 700 700">
				<use xlink:href="#bottomleft"/>
			</symbol>
			
			<clipPath id="crop">
				<rect class="mask" width="100%" height="100%" x="0"/>
			</clipPath>
		</defs>

		<!-- top left corner: -->
		<svg width="50%" height="50%">
				<use xlink:href="#topleft" width="700" height="700" class="redbg"/>
				<use xlink:href="#topleft" width="700" height="700" class="dottedline"/>
		</svg>

		<!-- top right corner: -->
		<g  transform="scale(-1, 1)">
			<svg width="50%" height="50%" x="-100%" y="0">
				<use xlink:href="#topright" width="700" height="700" class="redbg"/>
				<use xlink:href="#topright" width="700" height="700" class="dottedline"/>
			</svg>
		</g>

		<!-- bottom left corner: -->
		<g transform="scale(1, -1)">
			<svg width="50%" height="50%"  x="0" y="-100%" clip-path="url(#crop)">
				<use xlink:href="#bottomleft"  width="700" height="700" y="-700" transform="scale(1, -1)" class="redbg"/>
				<use xlink:href="#bottomleft"  width="700" height="700" y="-700" transform="scale(1, -1)"  class="dottedline"/>
			</svg> 
		</g>

		
		<!-- bottom right corner -->
		<!-- added clip-path="url(#crop)" to fix IE9 bug" -->
		<g  transform="scale(-1, -1)">
			<svg width="50%" height="50%" x="-100%" y="-100%"  clip-path="url(#crop)">
					<use xlink:href="#bottomright"  width="700" height="700" y="-700" transform="scale(1, -1)" class="redbg"/>
					<use xlink:href="#bottomright"  width="700" height="700" y="-700" transform="scale(1, -1)" class="dottedline"/>
			</svg>
		</g>
</svg>
